<svg width="85" height="84" viewBox="0 0 85 84" fill="none" xmlns="http://www.w3.org/2000/svg">
<rect x="0.5" width="84" height="84" rx="42" fill="white"/>
<path d="M42.5 74C60.1731 74 74.5 59.6731 74.5 42C74.5 24.3269 60.1731 10 42.5 10C24.8269 10 10.5 24.3269 10.5 42C10.5 59.6731 24.8269 74 42.5 74Z" fill="#E0E8E2"/>
<rect x="45.1257" y="40.9316" width="6.96599" height="8.27211" rx="3.48299" fill="#FDF8E5"/>
<rect x="38.5952" y="47.0273" width="6.96599" height="3.48299" rx="1.7415" fill="#FDF8E5"/>
<path d="M47.3028 43.109C47.4066 43.109 47.5074 43.0718 47.5863 43.0038C47.6747 42.9281 47.7281 42.8225 47.7368 42.7066C47.7456 42.5905 47.7086 42.4781 47.6327 42.3899C47.5499 42.2934 47.4295 42.2383 47.3024 42.2383C47.1984 42.2383 47.0977 42.2757 47.0187 42.3435C46.8367 42.5001 46.8158 42.7755 46.9723 42.9577C47.0551 43.0538 47.1756 43.109 47.3028 43.109Z" fill="#3A643C"/>
<path d="M46.6499 46.1561C46.6866 46.1561 46.7409 46.1469 46.7915 46.1036C46.8356 46.0657 46.8623 46.013 46.8666 45.955C46.8711 45.8971 46.8526 45.8408 46.8146 45.7966C46.7731 45.7485 46.7129 45.7207 46.6492 45.7207C46.6125 45.7207 46.558 45.7298 46.5074 45.7734C46.4166 45.8517 46.4061 45.9894 46.4844 46.0804C46.5258 46.1284 46.5862 46.1561 46.6499 46.1561Z" fill="#3A643C"/>
<path d="M46.2146 48.3338C46.2513 48.3338 46.3056 48.3247 46.3562 48.2813C46.4003 48.2435 46.427 48.1907 46.4313 48.1327C46.4358 48.0749 46.4173 48.0186 46.3793 47.9743C46.3378 47.9263 46.2776 47.8984 46.2139 47.8984C46.1772 47.8984 46.1227 47.9076 46.0722 47.9512C45.9814 48.0294 45.9708 48.1671 46.0491 48.2581C46.0905 48.3062 46.1509 48.3338 46.2146 48.3338Z" fill="#3A643C"/>
<path d="M48.3907 47.0273C48.3541 47.0273 48.2996 47.0365 48.249 47.0801C48.1582 47.1583 48.1477 47.2961 48.2259 47.387C48.2674 47.4351 48.3278 47.4627 48.3915 47.4627C48.4282 47.4627 48.4825 47.4536 48.5331 47.4102C48.5771 47.3724 48.6038 47.3196 48.6082 47.2616C48.6126 47.2038 48.5941 47.1475 48.5562 47.1032C48.5147 47.0552 48.4544 47.0273 48.3907 47.0273Z" fill="#3A643C"/>
<path d="M48.8269 45.2869C48.8636 45.2869 48.9179 45.2778 48.9685 45.2344C49.0126 45.1966 49.0393 45.1439 49.0436 45.0858C49.0481 45.028 49.0296 44.9717 48.9916 44.9274C48.9501 44.8794 48.8899 44.8516 48.8262 44.8516C48.7895 44.8516 48.735 44.8607 48.6845 44.9043C48.5937 44.9825 48.5831 45.1203 48.6614 45.2112C48.7028 45.2593 48.7632 45.2869 48.8269 45.2869Z" fill="#3A643C"/>
<path d="M50.585 45.8662C50.585 45.9832 50.6669 46.081 50.7754 46.1035L50.8232 46.1084C50.9382 46.1084 51.0344 46.0253 51.0566 45.915L51.0615 45.8662C51.0615 45.7492 50.9796 45.6514 50.8711 45.6289L50.8232 45.624M50.585 45.8662H50.5615M50.585 45.8662C50.585 45.7325 50.6918 45.624 50.8232 45.624M50.585 45.8662H50.5615M50.8232 45.624V45.6084M50.8232 45.624V45.6084M50.8232 45.6084L50.8779 45.6133C51.0011 45.6386 51.085 45.748 51.085 45.8662C51.085 45.9844 51.0011 46.0938 50.8779 46.1191L50.8232 46.124L50.7686 46.1191C50.663 46.0975 50.5862 46.0138 50.5664 45.916L50.5615 45.8662M50.8232 45.6084C50.671 45.6084 50.5615 45.7313 50.5615 45.8662M44.6143 27.5V30.6416H47.9629V32.7891H44.376V36.3184L44.377 36.335V36.3379C44.377 36.3392 44.3778 36.3411 44.3779 36.3428C44.3782 36.3461 44.3785 36.3507 44.3789 36.3555C44.3797 36.3649 44.3811 36.377 44.3828 36.3916C44.3862 36.4214 44.3909 36.4622 44.3994 36.5107C44.4163 36.6075 44.446 36.7401 44.4971 36.8906C44.5981 37.1884 44.7922 37.581 45.1641 37.9004C45.7305 38.3921 46.503 38.5416 47.3701 38.4531L47.3711 38.4541C47.4604 38.4501 49.5072 38.3769 50.9775 39.7666V39.7676C51.888 40.6246 52.4039 41.8782 52.4512 43.5586V43.5762L52.4531 43.5928C52.453 43.5928 52.5858 45.1359 51.8564 46.8467C51.1371 48.5338 49.5623 50.4291 46.043 51.1523C45.9433 51.1723 44.7427 51.4039 43.2139 51.2383C41.6219 51.0657 39.7256 50.4695 38.3232 48.8115L37.8809 48.2881L37.5176 48.8682C37.4888 48.9141 37.4432 48.9867 37.4131 49.0439L37.4072 49.0547L37.4023 49.0664C37.2255 49.4478 37.1654 49.8791 37.1494 50.2725C37.1333 50.6689 37.1612 51.0705 37.1836 51.4004V51.4043L37.1855 51.4346C37.206 51.7677 37.2515 52.101 37.291 52.4033V52.4043C37.3974 53.2052 37.4853 53.9216 37.2832 54.6533V54.6543C37.0237 55.6032 36.4474 56.3871 35.6064 56.9346C35.5423 56.9074 35.4629 56.8738 35.3721 56.834C35.1211 56.7239 34.7896 56.5749 34.4492 56.4209C34.283 56.3457 34.1166 56.2689 33.957 56.1963C34.1525 56.1658 34.3378 56.121 34.502 56.0596L34.5029 56.0605C35.3508 55.7463 35.6788 54.9828 35.7979 54.2646C35.9162 53.5511 35.8547 52.743 35.8105 52.1289V52.1279L35.7842 51.7686V51.7656L35.7676 51.5186C35.6955 50.358 35.6276 49.2441 35.8623 48.166C36.0934 47.1034 36.4989 46.5789 36.9521 46.3828V46.3838C37.272 46.2461 37.6106 46.2687 37.9014 46.3477C38.1293 46.4096 38.3003 46.4998 38.3652 46.5361C38.6678 46.8508 39.0228 46.9331 39.334 46.8809C39.5911 46.8377 39.7806 46.71 39.8662 46.6436C40.1203 46.462 40.382 46.4399 40.6318 46.4941C40.8971 46.5518 41.133 46.6958 41.2656 46.8115L41.3027 46.8438L41.3457 46.8682C41.6614 47.0495 42.064 47.0531 42.3721 47.0137C42.6981 46.9719 43.0489 46.8646 43.3164 46.7012L43.3184 46.7002C44.4498 46.0023 45.259 44.7677 45.4951 43.4229L45.5342 43.1523C45.6862 41.859 45.2959 40.6407 44.4131 39.7461V39.7451L44.1328 39.4492C43.5193 38.7676 43.1768 38.1569 42.9863 37.7051C42.8772 37.4462 42.8178 37.2372 42.7852 37.0957C42.7688 37.025 42.7592 36.971 42.7539 36.9355C42.7518 36.9215 42.749 36.9104 42.748 36.9023L42.7461 33.2881V32.7891H39.1602V30.6416H42.5088V27.5H44.6143ZM39.9736 47.8174C39.7584 47.5506 39.3761 47.4576 39.0547 47.6289C38.694 47.821 38.5606 48.2672 38.7441 48.625C39.0033 49.1295 39.7511 49.9932 40.9277 49.9932C41.0143 49.9932 41.1022 49.9884 41.1914 49.9785L41.4629 49.9336C41.8668 49.8443 42.1095 49.4448 42.0254 49.0527L41.9805 48.9121C41.8451 48.6015 41.5058 48.4043 41.1455 48.4854V48.4844C40.7894 48.5633 40.5369 48.4461 40.3516 48.293C40.2526 48.2111 40.1778 48.1218 40.1279 48.0537L40.0547 47.9424L39.9736 47.8174ZM47.4629 45.0703C47.0633 44.5981 46.342 44.5125 45.8418 44.8633L45.7451 44.9395C45.2409 45.3807 45.1843 46.1512 45.6162 46.6621H45.6172C45.6766 46.7322 45.7433 46.7944 45.8154 46.8486C45.6179 46.888 45.429 46.977 45.2695 47.1162H45.2686C44.7643 47.5575 44.7086 48.3279 45.1406 48.8389V48.8398C45.3704 49.111 45.7076 49.2686 46.0645 49.2686C46.3564 49.2685 46.6378 49.1623 46.8574 48.9707C47.1024 48.7569 47.2504 48.4578 47.2744 48.1348C47.2983 47.812 47.1968 47.4948 46.9873 47.2471H46.9863C46.9273 47.1774 46.8613 47.1162 46.79 47.0635C46.9901 47.0209 47.178 46.9301 47.334 46.7939C47.342 46.787 47.3487 46.7786 47.3564 46.7715C47.1639 47.1632 47.1894 47.6417 47.4453 48.0146L47.5205 48.1133C47.7503 48.3846 48.0874 48.543 48.4443 48.543C48.7363 48.5429 49.0177 48.4367 49.2373 48.2451C49.4823 48.0313 49.6303 47.7323 49.6543 47.4092C49.6782 47.0864 49.5767 46.7692 49.3672 46.5215H49.3662C48.9401 46.0181 48.1489 45.9547 47.6494 46.3906H47.6484C47.6412 46.397 47.634 46.4037 47.627 46.4102C47.6782 46.3057 47.7153 46.1943 47.7354 46.0781L47.75 45.958C47.7709 45.6756 47.6956 45.3979 47.5361 45.167L47.4629 45.0703ZM50.9297 40.5732C50.678 40.2479 50.2104 40.1912 49.8887 40.4473L49.8877 40.4482C49.5702 40.7024 49.5174 41.1648 49.7646 41.4844L49.7656 41.4854C49.7788 41.5032 50.0605 41.8826 50.2852 42.4658C50.5055 43.0379 50.6577 43.7714 50.4863 44.5439L50.4482 44.6992C50.3999 44.8733 50.4208 45.0512 50.4912 45.2061C50.2488 45.3295 50.085 45.5809 50.085 45.8662C50.085 46.2685 50.4082 46.6084 50.8232 46.6084C51.2383 46.6084 51.5615 46.2685 51.5615 45.8662C51.5615 45.7569 51.5353 45.6531 51.4922 45.5586C51.6712 45.4672 51.8126 45.3052 51.8701 45.0986C52.209 43.8784 51.9819 42.7622 51.6768 41.959C51.3724 41.158 50.9784 40.6362 50.9297 40.5732ZM49.8428 44.1035C49.4169 43.5998 48.6249 43.5356 48.125 43.9727C47.6208 44.4139 47.5643 45.1834 47.9961 45.6943L47.9971 45.6953C48.2269 45.9664 48.5631 46.124 48.9199 46.124C49.2122 46.124 49.4941 46.018 49.7139 45.8262C49.9588 45.6124 50.1059 45.3132 50.1299 44.9902C50.1537 44.6676 50.0521 44.3511 49.8428 44.1035ZM47.2539 41.2539C46.9045 41.2539 46.5667 41.3817 46.3037 41.6113C45.6994 42.1395 45.6319 43.0636 46.1494 43.6758H46.1504C46.4256 44.001 46.828 44.1894 47.2539 44.1895C47.6029 44.1895 47.9402 44.0618 48.2031 43.832C48.496 43.5763 48.6723 43.2195 48.7012 42.832C48.7264 42.4928 48.6366 42.1595 48.4453 41.8828L48.3574 41.7686C48.0825 41.4433 47.6804 41.254 47.2539 41.2539Z" fill="#FDF8E5" stroke="#3A643C"/>
</svg>
